<?xml version="1.0" encoding="UTF-8"?>
<svg width="700pt" height="700pt" version="1.1" viewBox="0 0 700 700" xmlns="http://www.w3.org/2000/svg" xmlns:xlink="http://www.w3.org/1999/xlink">
 <defs>
  <symbol id="x" overflow="visible">
   <path d="m9.375-0.5625c-0.48047 0.25-0.98438 0.4375-1.5156 0.5625-0.52344 0.13281-1.0625 0.20312-1.625 0.20312-1.7109 0-3.0586-0.47266-4.0469-1.4219-0.99219-0.95703-1.4844-2.25-1.4844-3.875 0-1.6328 0.49219-2.9258 1.4844-3.875 0.98828-0.94531 2.3359-1.4219 4.0469-1.4219 0.5625 0 1.1016 0.0625 1.625 0.1875 0.53125 0.125 1.0352 0.32031 1.5156 0.57812v2.1094c-0.49219-0.33203-0.97656-0.57812-1.4531-0.73438-0.46875-0.15625-0.96484-0.23438-1.4844-0.23438-0.9375 0-1.6797 0.30469-2.2188 0.90625-0.53125 0.60547-0.79688 1.4336-0.79688 2.4844 0 1.0547 0.26562 1.8828 0.79688 2.4844 0.53906 0.60547 1.2812 0.90625 2.2188 0.90625 0.51953 0 1.0156-0.078125 1.4844-0.23438 0.47656-0.15625 0.96094-0.39844 1.4531-0.73438z"/>
  </symbol>
  <symbol id="d" overflow="visible">
   <path d="m6.8594-5.5781c-0.21094-0.09375-0.42188-0.16016-0.64062-0.20312-0.21094-0.050781-0.42188-0.078125-0.64062-0.078125-0.625 0-1.1094 0.20312-1.4531 0.60938-0.33594 0.39844-0.5 0.96875-0.5 1.7188v3.5312h-2.4531v-7.6562h2.4531v1.25c0.3125-0.5 0.67188-0.86328 1.0781-1.0938 0.40625-0.22656 0.89453-0.34375 1.4688-0.34375 0.082031 0 0.17188 0.007812 0.26562 0.015625 0.09375 0 0.23438 0.015625 0.42188 0.046875z"/>
  </symbol>
  <symbol id="a" overflow="visible">
   <path d="m8.8125-3.8438v0.6875h-5.7188c0.0625 0.57422 0.26953 1.0078 0.625 1.2969 0.35156 0.29297 0.84766 0.4375 1.4844 0.4375 0.51953 0 1.0508-0.078125 1.5938-0.23438 0.53906-0.15625 1.0938-0.39062 1.6562-0.70312v1.8906c-0.57422 0.21875-1.1523 0.38672-1.7344 0.5-0.57422 0.11328-1.1523 0.17188-1.7344 0.17188-1.3867 0-2.4648-0.35156-3.2344-1.0625-0.76172-0.70703-1.1406-1.6953-1.1406-2.9688 0-1.2383 0.375-2.2188 1.125-2.9375s1.7852-1.0781 3.1094-1.0781c1.207 0 2.1719 0.36719 2.8906 1.0938 0.71875 0.71875 1.0781 1.6875 1.0781 2.9062zm-2.5156-0.8125c0-0.46875-0.13672-0.84375-0.40625-1.125-0.27344-0.28906-0.625-0.4375-1.0625-0.4375-0.46875 0-0.85547 0.13672-1.1562 0.40625-0.29297 0.26172-0.47656 0.64844-0.54688 1.1562z"/>
  </symbol>
  <symbol id="l" overflow="visible">
   <path d="m4.6094-3.4531c-0.51172 0-0.89844 0.089844-1.1562 0.26562-0.26172 0.17969-0.39062 0.43359-0.39062 0.76562 0 0.3125 0.10156 0.55859 0.3125 0.73438 0.20703 0.17969 0.5 0.26562 0.875 0.26562 0.45703 0 0.84375-0.16406 1.1562-0.5 0.3125-0.33203 0.46875-0.75 0.46875-1.25v-0.28125zm3.7344-0.92188v4.375h-2.4688v-1.1406c-0.32422 0.46875-0.69531 0.8125-1.1094 1.0312-0.40625 0.20703-0.90234 0.3125-1.4844 0.3125-0.80469 0-1.4492-0.22656-1.9375-0.6875-0.49219-0.46875-0.73438-1.0703-0.73438-1.8125 0-0.89453 0.30469-1.5508 0.92188-1.9688 0.61328-0.42578 1.582-0.64062 2.9062-0.64062h1.4375v-0.1875c0-0.38281-0.15234-0.66406-0.45312-0.84375-0.30469-0.1875-0.77734-0.28125-1.4219-0.28125-0.53125 0-1.0234 0.054688-1.4688 0.15625-0.44922 0.10547-0.87109 0.26562-1.2656 0.48438v-1.875c0.53125-0.125 1.0547-0.21875 1.5781-0.28125 0.53125-0.070313 1.0625-0.10938 1.5938-0.10938 1.3828 0 2.3789 0.27734 2.9844 0.82812 0.61328 0.54297 0.92188 1.4219 0.92188 2.6406z"/>
  </symbol>
  <symbol id="c" overflow="visible">
   <path d="m3.8438-9.8281v2.1719h2.5312v1.75h-2.5312v3.25c0 0.35547 0.066406 0.59375 0.20312 0.71875 0.14453 0.125 0.42969 0.1875 0.85938 0.1875h1.25v1.75h-2.0938c-0.96875 0-1.6562-0.19531-2.0625-0.59375-0.39844-0.40625-0.59375-1.0938-0.59375-2.0625v-3.25h-1.2188v-1.75h1.2188v-2.1719z"/>
  </symbol>
  <symbol id="k" overflow="visible">
   <path d="m6.3906-6.5312v-4.1094h2.4531v10.641h-2.4531v-1.1094c-0.34375 0.44922-0.71875 0.78125-1.125 1-0.40625 0.20703-0.875 0.3125-1.4062 0.3125-0.9375 0-1.7148-0.375-2.3281-1.125-0.60547-0.75-0.90625-1.7188-0.90625-2.9062 0-1.1758 0.30078-2.1406 0.90625-2.8906 0.61328-0.75 1.3906-1.125 2.3281-1.125 0.53125 0 1 0.10938 1.4062 0.32812 0.40625 0.21094 0.78125 0.53906 1.125 0.98438zm-1.625 4.9531c0.53125 0 0.92969-0.19141 1.2031-0.57812 0.28125-0.38281 0.42188-0.94141 0.42188-1.6719 0-0.72656-0.14062-1.2812-0.42188-1.6562-0.27344-0.38281-0.67188-0.57812-1.2031-0.57812-0.51172 0-0.90625 0.19531-1.1875 0.57812-0.27344 0.375-0.40625 0.92969-0.40625 1.6562 0 0.73047 0.13281 1.2891 0.40625 1.6719 0.28125 0.38672 0.67578 0.57812 1.1875 0.57812z"/>
  </symbol>
  <symbol id="j" overflow="visible">
   <path d="m5.25-1.5781c0.51953 0 0.91406-0.19141 1.1875-0.57812 0.28125-0.38281 0.42188-0.94141 0.42188-1.6719 0-0.72656-0.14062-1.2812-0.42188-1.6562-0.27344-0.38281-0.66797-0.57812-1.1875-0.57812-0.52344 0-0.92188 0.19531-1.2031 0.57812-0.28125 0.38672-0.42188 0.9375-0.42188 1.6562 0 0.73047 0.14062 1.2891 0.42188 1.6719 0.28125 0.38672 0.67969 0.57812 1.2031 0.57812zm-1.625-4.9531c0.33203-0.44531 0.70312-0.77344 1.1094-0.98438 0.41406-0.21875 0.89062-0.32812 1.4219-0.32812 0.94531 0 1.7227 0.375 2.3281 1.125 0.60156 0.75 0.90625 1.7148 0.90625 2.8906 0 1.1875-0.30469 2.1562-0.90625 2.9062-0.60547 0.75-1.3828 1.125-2.3281 1.125-0.53125 0-1.0078-0.10547-1.4219-0.3125-0.40625-0.21875-0.77734-0.55078-1.1094-1v1.1094h-2.4531v-10.641h2.4531z"/>
  </symbol>
  <symbol id="i" overflow="visible">
   <path d="m0.17188-7.6562h2.4531l2.0469 5.1875 1.75-5.1875h2.4531l-3.2188 8.375c-0.32422 0.85156-0.70312 1.4453-1.1406 1.7812-0.42969 0.34375-0.99609 0.51562-1.7031 0.51562h-1.4062v-1.5938h0.76562c0.41406 0 0.71875-0.070313 0.90625-0.20312 0.1875-0.13672 0.33203-0.375 0.4375-0.71875l0.0625-0.20312z"/>
  </symbol>
  <symbol id="h" overflow="visible">
   <path d="m8.3906-9.8906v2.1719c-0.5625-0.25-1.1094-0.4375-1.6406-0.5625-0.53125-0.13281-1.0391-0.20312-1.5156-0.20312-0.625 0-1.0898 0.089844-1.3906 0.26562-0.30469 0.16797-0.45312 0.43359-0.45312 0.79688 0 0.28125 0.097656 0.5 0.29688 0.65625 0.20703 0.14844 0.57812 0.27344 1.1094 0.375l1.125 0.23438c1.1328 0.23047 1.9414 0.57812 2.4219 1.0469 0.47656 0.46094 0.71875 1.1172 0.71875 1.9688 0 1.125-0.33594 1.9648-1 2.5156-0.66797 0.55469-1.6875 0.82812-3.0625 0.82812-0.64844 0-1.2969-0.0625-1.9531-0.1875-0.64844-0.125-1.2969-0.30469-1.9531-0.54688v-2.2188c0.65625 0.34375 1.2852 0.60547 1.8906 0.78125 0.60156 0.17969 1.1914 0.26562 1.7656 0.26562 0.57031 0 1.0078-0.09375 1.3125-0.28125 0.30078-0.19531 0.45312-0.47266 0.45312-0.82812 0-0.32031-0.10547-0.56641-0.3125-0.73438-0.19922-0.17578-0.60938-0.33203-1.2344-0.46875l-1.0156-0.23438c-1.0234-0.21875-1.7734-0.56641-2.25-1.0469-0.46875-0.47656-0.70312-1.1172-0.70312-1.9219 0-1.0195 0.32812-1.8008 0.98438-2.3438 0.65625-0.55078 1.5977-0.82812 2.8281-0.82812 0.5625 0 1.1406 0.042969 1.7344 0.125 0.59375 0.085937 1.207 0.21094 1.8438 0.375z"/>
  </symbol>
  <symbol id="g" overflow="visible">
   <path d="m1.1719-7.6562h2.4531v7.6562h-2.4531zm0-2.9844h2.4531v2h-2.4531z"/>
  </symbol>
  <symbol id="w" overflow="visible">
   <path d="m1.1719-10.641h2.4531v10.641h-2.4531z"/>
  </symbol>
  <symbol id="v" overflow="visible">
   <path d="m0.21875-7.6562h2.4375l1.9062 5.2969 1.9062-5.2969h2.4531l-3.0156 7.6562h-2.6875z"/>
  </symbol>
  <symbol id="f" overflow="visible">
   <path d="m1.0938-2.9844v-4.6719h2.4688v0.76562c0 0.41797-0.007812 0.9375-0.015625 1.5625v1.25c0 0.61719 0.015625 1.0586 0.046875 1.3281 0.03125 0.27344 0.082031 0.46875 0.15625 0.59375 0.10156 0.15625 0.23438 0.28125 0.39062 0.375 0.16406 0.085938 0.35156 0.125 0.5625 0.125 0.50781 0 0.91016-0.19141 1.2031-0.57812 0.28906-0.39453 0.4375-0.94141 0.4375-1.6406v-3.7812h2.4531v7.6562h-2.4531v-1.1094c-0.36719 0.44922-0.75781 0.78125-1.1719 1-0.41797 0.20703-0.87109 0.3125-1.3594 0.3125-0.88672 0-1.5625-0.26953-2.0312-0.8125-0.46094-0.53906-0.6875-1.332-0.6875-2.375z"/>
  </symbol>
  <symbol id="u" overflow="visible">
   <path d="m5.9531-8.4844c-0.80469 0-1.4297 0.29688-1.875 0.89062-0.4375 0.59375-0.65625 1.4297-0.65625 2.5 0 1.0742 0.21875 1.9062 0.65625 2.5 0.44531 0.59375 1.0703 0.89062 1.875 0.89062 0.80078 0 1.4219-0.29688 1.8594-0.89062 0.44531-0.59375 0.67188-1.4258 0.67188-2.5 0-1.0703-0.22656-1.9062-0.67188-2.5-0.4375-0.59375-1.0586-0.89062-1.8594-0.89062zm0-1.9062c1.6328 0 2.9141 0.46875 3.8438 1.4062 0.9375 0.9375 1.4062 2.2344 1.4062 3.8906 0 1.6484-0.46875 2.9453-1.4062 3.8906-0.92969 0.9375-2.2109 1.4062-3.8438 1.4062-1.6367 0-2.9219-0.46875-3.8594-1.4062-0.92969-0.94531-1.3906-2.2422-1.3906-3.8906 0-1.6562 0.46094-2.9531 1.3906-3.8906 0.9375-0.9375 2.2227-1.4062 3.8594-1.4062z"/>
  </symbol>
  <symbol id="e" overflow="visible">
   <path d="m1.1719-7.6562h2.4531v7.5156c0 1.0312-0.25 1.8125-0.75 2.3438-0.49219 0.53906-1.1992 0.8125-2.125 0.8125h-1.2188v-1.5938h0.42188c0.46875 0 0.78516-0.10938 0.95312-0.32812 0.17578-0.21094 0.26562-0.62109 0.26562-1.2344zm0-2.9844h2.4531v2h-2.4531z"/>
  </symbol>
  <symbol id="b" overflow="visible">
   <path d="m4.8125-6.0938c-0.54297 0-0.95312 0.19922-1.2344 0.59375-0.28125 0.38672-0.42188 0.94531-0.42188 1.6719 0 0.74219 0.14062 1.3086 0.42188 1.7031 0.28125 0.38672 0.69141 0.57812 1.2344 0.57812 0.53906 0 0.95312-0.19141 1.2344-0.57812 0.28125-0.39453 0.42188-0.96094 0.42188-1.7031 0-0.72656-0.14062-1.2852-0.42188-1.6719-0.28125-0.39453-0.69531-0.59375-1.2344-0.59375zm0-1.75c1.3203 0 2.3516 0.35938 3.0938 1.0781 0.73828 0.71094 1.1094 1.6875 1.1094 2.9375 0 1.2617-0.37109 2.25-1.1094 2.9688-0.74219 0.71094-1.7734 1.0625-3.0938 1.0625-1.3125 0-2.3438-0.35156-3.0938-1.0625-0.74219-0.71875-1.1094-1.707-1.1094-2.9688 0-1.25 0.36719-2.2266 1.1094-2.9375 0.75-0.71875 1.7812-1.0781 3.0938-1.0781z"/>
  </symbol>
  <symbol id="t" overflow="visible">
   <path d="m6.3906-1.2969c-0.34375 0.44922-0.71875 0.77734-1.125 0.98438-0.40625 0.21094-0.875 0.3125-1.4062 0.3125-0.92969 0-1.6992-0.36328-2.3125-1.0938-0.61719-0.73828-0.92188-1.6797-0.92188-2.8281 0-1.1445 0.30469-2.082 0.92188-2.8125 0.61328-0.72656 1.3828-1.0938 2.3125-1.0938 0.53125 0 1 0.10547 1.4062 0.3125 0.40625 0.21094 0.78125 0.54297 1.125 1v-1.1406h2.4531v6.8906c0 1.2266-0.39062 2.1641-1.1719 2.8125-0.77344 0.64453-1.8984 0.96875-3.375 0.96875-0.48047 0-0.94531-0.039063-1.3906-0.10938-0.4375-0.074219-0.88672-0.18359-1.3438-0.32812v-1.9062c0.42578 0.25 0.84375 0.42969 1.25 0.54688 0.41406 0.125 0.83203 0.1875 1.25 0.1875 0.80078 0 1.3906-0.17969 1.7656-0.53125 0.375-0.35547 0.5625-0.89844 0.5625-1.6406zm-1.625-4.7656c-0.5 0-0.89062 0.1875-1.1719 0.5625s-0.42188 0.90234-0.42188 1.5781c0 0.71094 0.13281 1.2461 0.40625 1.6094 0.26953 0.35547 0.66406 0.53125 1.1875 0.53125 0.50781 0 0.90625-0.1875 1.1875-0.5625 0.28906-0.375 0.4375-0.89844 0.4375-1.5781 0-0.67578-0.14844-1.2031-0.4375-1.5781-0.28125-0.375-0.67969-0.5625-1.1875-0.5625z"/>
  </symbol>
  <symbol id="s" overflow="visible">
   <path d="m6.2188-10.641v1.6094h-1.3594c-0.34375 0-0.58594 0.0625-0.71875 0.1875-0.13672 0.125-0.20312 0.34375-0.20312 0.65625v0.53125h2.0781v1.75h-2.0781v5.9062h-2.4531v-5.9062h-1.2188v-1.75h1.2188v-0.53125c0-0.83203 0.22656-1.4453 0.6875-1.8438 0.46875-0.40625 1.1914-0.60938 2.1719-0.60938z"/>
  </symbol>
  <symbol id="r" overflow="visible">
   <path d="m8.2656-6.3906c0.3125-0.46875 0.67969-0.82812 1.1094-1.0781 0.42578-0.25 0.89453-0.375 1.4062-0.375 0.875 0 1.5391 0.27344 2 0.8125 0.46875 0.54297 0.70312 1.3359 0.70312 2.375v4.6562h-2.4688v-4c0.007813-0.050781 0.015625-0.10938 0.015625-0.17188v-0.28125c0-0.53906-0.078125-0.92969-0.23438-1.1719-0.15625-0.25-0.41797-0.375-0.78125-0.375-0.46094 0-0.82031 0.19531-1.0781 0.57812-0.25 0.38672-0.38281 0.9375-0.39062 1.6562v3.7656h-2.4531v-4c0-0.84375-0.074219-1.3828-0.21875-1.625-0.14844-0.25-0.40625-0.375-0.78125-0.375-0.46875 0-0.83594 0.19531-1.0938 0.57812-0.25 0.38672-0.375 0.9375-0.375 1.6562v3.7656h-2.4688v-7.6562h2.4688v1.125c0.30078-0.4375 0.64453-0.76562 1.0312-0.98438 0.39453-0.21875 0.82812-0.32812 1.2969-0.32812 0.51953 0 0.98438 0.13281 1.3906 0.39062 0.40625 0.25 0.71094 0.60547 0.92188 1.0625z"/>
  </symbol>
  <symbol id="q" overflow="visible">
   <path d="m8.875-4.6562v4.6562h-2.4688v-3.5625c0-0.66406-0.015625-1.125-0.046875-1.375-0.023437-0.25-0.070313-0.42969-0.14062-0.54688-0.09375-0.16406-0.22656-0.28906-0.39062-0.375-0.16797-0.09375-0.35547-0.14062-0.5625-0.14062-0.51172 0-0.91406 0.19922-1.2031 0.59375-0.29297 0.39844-0.4375 0.94531-0.4375 1.6406v3.7656h-2.4531v-10.641h2.4531v4.1094c0.36328-0.44531 0.75391-0.77344 1.1719-0.98438 0.41406-0.21875 0.875-0.32812 1.375-0.32812 0.88281 0 1.5547 0.27344 2.0156 0.8125 0.45703 0.54297 0.6875 1.3359 0.6875 2.375z"/>
  </symbol>
  <symbol id="p" overflow="visible">
   <path d="m1.2812-10.203h2.9375l3.7188 7v-7h2.5v10.203h-2.9375l-3.7188-7v7h-2.5z"/>
  </symbol>
  <symbol id="o" overflow="visible">
   <path d="m8.875-4.6562v4.6562h-2.4688v-3.5625c0-0.66406-0.015625-1.125-0.046875-1.375-0.023437-0.25-0.070313-0.42969-0.14062-0.54688-0.09375-0.16406-0.22656-0.28906-0.39062-0.375-0.16797-0.09375-0.35547-0.14062-0.5625-0.14062-0.51172 0-0.91406 0.19922-1.2031 0.59375-0.29297 0.39844-0.4375 0.94531-0.4375 1.6406v3.7656h-2.4531v-7.6562h2.4531v1.125c0.36328-0.44531 0.75391-0.77344 1.1719-0.98438 0.41406-0.21875 0.875-0.32812 1.375-0.32812 0.88281 0 1.5547 0.27344 2.0156 0.8125 0.45703 0.54297 0.6875 1.3359 0.6875 2.375z"/>
  </symbol>
  <symbol id="n" overflow="visible">
   <path d="m1.2812-10.203h4.375c1.3008 0 2.2969 0.28906 2.9844 0.85938 0.69531 0.57422 1.0469 1.3984 1.0469 2.4688 0 1.0742-0.35156 1.8984-1.0469 2.4688-0.6875 0.57422-1.6836 0.85938-2.9844 0.85938h-1.7344v3.5469h-2.6406zm2.6406 1.9062v2.8438h1.4531c0.50781 0 0.89844-0.11719 1.1719-0.35938 0.28125-0.25 0.42188-0.60156 0.42188-1.0625 0-0.45703-0.14062-0.80469-0.42188-1.0469-0.27344-0.25-0.66406-0.375-1.1719-0.375z"/>
  </symbol>
  <symbol id="m" overflow="visible">
   <path d="m7.3594-7.4219v2c-0.33594-0.22656-0.66797-0.39453-1-0.5-0.33594-0.11328-0.68359-0.17188-1.0469-0.17188-0.67969 0-1.2109 0.20312-1.5938 0.60938-0.375 0.39844-0.5625 0.94922-0.5625 1.6562 0 0.71875 0.1875 1.2812 0.5625 1.6875 0.38281 0.39844 0.91406 0.59375 1.5938 0.59375 0.38281 0 0.75-0.054687 1.0938-0.17188 0.34375-0.11328 0.66016-0.28516 0.95312-0.51562v2.0156c-0.38672 0.13672-0.77734 0.23828-1.1719 0.3125-0.38672 0.070312-0.77734 0.10938-1.1719 0.10938-1.3867 0-2.4688-0.35156-3.25-1.0625-0.77344-0.70703-1.1562-1.6953-1.1562-2.9688 0-1.2578 0.38281-2.2422 1.1562-2.9531 0.78125-0.70703 1.8633-1.0625 3.25-1.0625 0.39453 0 0.78516 0.039062 1.1719 0.10938 0.39453 0.074219 0.78516 0.17969 1.1719 0.3125z"/>
  </symbol>
 </defs>
 <g>
  <path d="m448 316.4h89.602c4.6367 0 8.3984 3.7617 8.3984 8.4023v33.598c0 4.6406-3.7617 8.4023-8.3984 8.4023h-89.602c-4.6406 0-8.3984-3.7617-8.3984-8.4023v-33.598c0-4.6406 3.7578-8.4023 8.3984-8.4023zm66.84 35.52c-1.4297 1.4961-1.4297 3.6602 0 5.1523 0.71875 0.75391 1.6055 1.1953 2.5312 1.1953 0.93359 0 1.9297-0.45703 2.6328-1.1953l13.773-14.387c0.70703-0.73828 1.0234-1.543 1.0234-2.5781 0-1.0352-0.31641-1.8398-1.0234-2.5742l-13.773-14.391c-1.4531-1.5195-3.707-1.5195-5.1641 0-1.4297 1.4961-1.4297 3.6602 0 5.1523l7.6953 8.043h-28.984c-2.043 0-3.5508 1.668-3.5508 3.7695 0 2.0938 1.5039 3.6641 3.5508 3.6641h29.004zm-351.51-351.92h373.34c51.547 0 93.332 41.785 93.332 93.332v373.34c0 51.547-41.785 93.332-93.332 93.332h-373.34c-51.547 0-93.332-41.785-93.332-93.332v-373.34c0-51.547 41.785-93.332 93.332-93.332zm291.67 48.363c-11.598 0-21 9.4023-21 21 0 11.598 9.4023 21 21 21s21-9.4023 21-21c0-11.598-9.4023-21-21-21zm68.445 0c-11.598 0-21 9.4023-21 21 0 11.598 9.4023 21 21 21 11.598 0 21-9.4023 21-21 0-11.598-9.4023-21-21-21zm-408.64 427.37c0 18.508 15.004 33.512 33.512 33.512h402.13c18.508 0 33.512-15.004 33.512-33.512v-349.73h-469.16zm167.59-299.34h41.523l76.48 79.027-50.711 50.609-20.449-21.352v97.785h-134.88v-97.785l-20.445 21.352-50.715-50.609 76.484-79.027h41.52v2.1289c0 11.336 9.2383 12.039 20.598 12.039 11.355 0 20.594-0.70312 20.594-12.039zm160 8.4023h92.402c4.6367 0 8.3984 3.7617 8.3984 8.3984 0 4.6406-3.7617 8.4023-8.3984 8.4023h-92.402c-4.6367 0-8.3984-3.7617-8.3984-8.4023 0-4.6367 3.7617-8.3984 8.3984-8.3984zm0 28h92.402c4.6367 0 8.3984 3.7617 8.3984 8.3984 0 4.6406-3.7617 8.4023-8.3984 8.4023h-92.402c-4.6367 0-8.3984-3.7617-8.3984-8.4023 0-4.6367 3.7617-8.3984 8.3984-8.3984zm0 28h92.402c4.6367 0 8.3984 3.7617 8.3984 8.3984 0 4.6406-3.7617 8.4023-8.3984 8.4023h-92.402c-4.6367 0-8.3984-3.7617-8.3984-8.4023 0-4.6367 3.7617-8.3984 8.3984-8.3984zm0 28h53.203c4.6367 0 8.3984 3.7617 8.3984 8.3984 0 4.6406-3.7617 8.4023-8.3984 8.4023h-53.203c-4.6367 0-8.3984-3.7617-8.3984-8.4023 0-4.6367 3.7617-8.3984 8.3984-8.3984zm-266 156.8h92.402c4.6367 0 8.3984 3.7578 8.3984 8.3984s-3.7617 8.3984-8.3984 8.3984h-92.402c-4.6367 0-8.3984-3.7578-8.3984-8.3984s3.7617-8.3984 8.3984-8.3984zm0 28h92.402c4.6367 0 8.3984 3.7578 8.3984 8.3984s-3.7617 8.3984-8.3984 8.3984h-92.402c-4.6367 0-8.3984-3.7578-8.3984-8.3984s3.7617-8.3984 8.3984-8.3984zm140-28h92.402c4.6367 0 8.3984 3.7578 8.3984 8.3984s-3.7617 8.3984-8.3984 8.3984h-92.402c-4.6367 0-8.3984-3.7578-8.3984-8.3984s3.7617-8.3984 8.3984-8.3984zm0 28h92.402c4.6367 0 8.3984 3.7578 8.3984 8.3984s-3.7617 8.3984-8.3984 8.3984h-92.402c-4.6367 0-8.3984-3.7578-8.3984-8.3984s3.7617-8.3984 8.3984-8.3984zm134.4-28h92.398c4.6406 0 8.4023 3.7578 8.4023 8.3984s-3.7617 8.3984-8.4023 8.3984h-92.398c-4.6406 0-8.4023-3.7578-8.4023-8.3984s3.7617-8.3984 8.4023-8.3984zm0 28h92.398c4.6406 0 8.4023 3.7578 8.4023 8.3984s-3.7617 8.3984-8.4023 8.3984h-92.398c-4.6406 0-8.4023-3.7578-8.4023-8.3984s3.7617-8.3984 8.4023-8.3984z" fill-rule="evenodd"/>
  <use x="70" y="602" xlink:href="#x"/>
  <use x="80.273438" y="602" xlink:href="#d"/>
  <use x="87.179688" y="602" xlink:href="#a"/>
  <use x="96.675781" y="602" xlink:href="#l"/>
  <use x="106.121094" y="602" xlink:href="#c"/>
  <use x="112.8125" y="602" xlink:href="#a"/>
  <use x="122.308594" y="602" xlink:href="#k"/>
  <use x="137.203125" y="602" xlink:href="#j"/>
  <use x="147.226562" y="602" xlink:href="#i"/>
  <use x="161.226562" y="602" xlink:href="#h"/>
  <use x="171.308594" y="602" xlink:href="#g"/>
  <use x="176.109375" y="602" xlink:href="#w"/>
  <use x="180.90625" y="602" xlink:href="#v"/>
  <use x="190.03125" y="602" xlink:href="#g"/>
  <use x="194.832031" y="602" xlink:href="#f"/>
  <use x="209.671875" y="602" xlink:href="#u"/>
  <use x="221.574219" y="602" xlink:href="#e"/>
  <use x="226.371094" y="602" xlink:href="#b"/>
  <use x="235.992188" y="602" xlink:href="#t"/>
  <use x="70" y="616" xlink:href="#s"/>
  <use x="76.089844" y="616" xlink:href="#d"/>
  <use x="82.996094" y="616" xlink:href="#b"/>
  <use x="92.613281" y="616" xlink:href="#r"/>
  <use x="112.074219" y="616" xlink:href="#c"/>
  <use x="118.769531" y="616" xlink:href="#q"/>
  <use x="128.734375" y="616" xlink:href="#a"/>
  <use x="143.105469" y="616" xlink:href="#p"/>
  <use x="154.820312" y="616" xlink:href="#b"/>
  <use x="164.4375" y="616" xlink:href="#f"/>
  <use x="174.40625" y="616" xlink:href="#o"/>
  <use x="189.246094" y="616" xlink:href="#n"/>
  <use x="199.507812" y="616" xlink:href="#d"/>
  <use x="206.410156" y="616" xlink:href="#b"/>
  <use x="216.03125" y="616" xlink:href="#e"/>
  <use x="220.828125" y="616" xlink:href="#a"/>
  <use x="230.324219" y="616" xlink:href="#m"/>
  <use x="238.621094" y="616" xlink:href="#c"/>
 </g>
</svg>
